<svg xmlns="http://www.w3.org/2000/svg" viewBox="0 0 661.000000 386.000000" preserveAspectRatio="xMidYMid meet"><g transform="translate(0.000000,386.000000) scale(0.100000,-0.100000)"
fill="#e30613" stroke="none">
<path d="M3735 3683 c-63 -23 -328 -209 -795 -558 -118 -88 -272 -203 -342
-253 -309 -227 -307 -357 12 -610 124 -98 165 -171 142 -251 -26 -84 26 -54
-822 -475 -872 -434 -873 -434 -1108 -440 -106 -3 -182 -10 -217 -21 -271 -78
-311 -498 -64 -667 88 -61 135 -68 449 -68 274 0 315 5 292 32 -8 11 -9 17 0
26 43 43 -176 62 -330 28 -299 -66 -494 48 -506 296 -10 214 84 294 354 302
91 2 190 10 220 16 118 26 1645 773 1723 843 139 125 102 273 -109 442 -240
192 -256 304 -63 445 41 30 223 165 404 299 650 481 753 551 827 556 121 8
187 -84 232 -325 36 -190 6 -239 -178 -284 -220 -54 -315 -212 -222 -370 66
-112 95 -122 456 -152 36 -3 83 -7 105 -9 138 -14 274 -16 311 -6 107 29 159
155 119 287 -39 130 -3 220 101 251 83 25 91 21 769 -427 231 -152 485 -317
565 -366 192 -117 205 -127 235 -187 47 -94 23 -213 -53 -264 -42 -27 -56 -27
-536 27 -422 47 -426 46 -491 -13 -71 -64 -89 -127 -64 -216 37 -128 18 -223
-47 -249 -26 -9 -862 -70 -1087 -78 -48 -2 -92 -6 -97 -9 -6 -3 -40 -6 -77 -6
-38 0 -99 -1 -138 -4 -93 -6 -232 -15 -327 -20 -226 -12 -295 -116 -231 -343
40 -142 11 -295 -71 -370 -101 -93 -213 -105 -466 -47 -228 51 -259 53 -344
21 -68 -26 -68 -26 -493 -26 -447 0 -478 -3 -444 -44 9 -10 3 -20 -26 -45 -37
-32 -53 -64 -27 -54 8 3 14 0 14 -6 0 -6 7 -11 15 -11 8 0 15 5 15 10 0 6 7
10 15 10 20 0 19 17 -2 29 -30 16 -24 16 487 11 1111 -13 1139 -11 1263 70
132 88 182 271 128 470 -62 226 -40 242 375 270 170 11 541 36 824 56 283 19
532 34 555 33 37 -1 98 6 152 17 95 19 149 167 108 300 -29 97 -9 165 61 206
32 19 371 -11 773 -69 216 -30 344 70 328 258 -12 134 -58 188 -267 314 -80
48 -334 212 -565 365 -734 486 -729 483 -831 455 -149 -40 -220 -172 -169
-315 8 -23 15 -69 15 -102 0 -125 -85 -149 -390 -114 -19 3 -66 7 -105 11
-106 9 -177 16 -210 20 -16 2 -42 4 -58 4 -71 2 -143 112 -134 204 8 90 52
119 264 176 170 46 211 157 150 401 -69 270 -184 373 -352 313z"/>
</g></svg>